<?xml version="1.0" standalone="no"?>
<!DOCTYPE svg PUBLIC "-//W3C//DTD SVG 1.1//EN" "http://www.w3.org/Graphics/SVG/1.1/DTD/svg11.dtd" >
<svg xmlns="http://www.w3.org/2000/svg" xmlns:svg="http://www.w3.org/2000/svg" xmlns:xlink="http://www.w3.org/1999/xlink" viewBox="0 0 1024 1024"><path d="M426.5 514.0Q440.5 494.0 468.5 494.0Q470.5 494.0 473.5 494.0Q480.5 495.0 484.5 495.0Q490.5 495.0 494.0 493.0Q497.5 491.0 500.5 480.0Q500.5 471.0 501.0 436.0Q501.5 401.0 501.5 382.0Q501.5 343.0 500.5 296.0Q500.5 253.0 500.5 222.0Q500.5 175.0 501.5 148.5Q502.5 122.0 509.5 118.0Q513.5 113.0 549.5 111.0Q585.5 109.0 682.5 107.0H850.5Q875.5 111.0 884.5 116.5Q893.5 122.0 895.5 136.0Q897.5 143.0 897.5 149.0Q897.5 152.0 896.5 156.5Q895.5 161.0 887.5 168.0Q882.5 177.0 853.5 180.0Q824.5 183.0 727.5 183.0L580.5 185.0L576.5 204.0L574.5 224.0L720.5 228.0Q819.5 228.0 846.5 230.5Q873.5 233.0 877.5 240.0Q884.5 254.0 884.5 266.0Q884.5 268.0 883.5 276.5Q882.5 285.0 869.5 294.0Q862.5 300.0 839.0 301.0Q815.5 302.0 777.5 302.0Q752.5 302.0 718.5 302.0L583.5 300.0L581.5 325.0Q581.5 329.0 581.5 332.0Q581.5 342.0 584.5 346.0Q587.5 350.0 601.5 350.0Q612.5 350.0 648.5 351.0Q684.5 352.0 729.5 352.0Q815.5 354.0 842.0 357.5Q868.5 361.0 868.5 372.0Q870.5 378.0 870.5 384.0Q870.5 392.0 865.5 403.5Q860.5 415.0 848.5 420.0Q841.5 424.0 800.0 425.0Q758.5 426.0 704.5 426.0H574.5V491.0L641.5 494.0Q670.5 496.0 711.5 498.0Q752.5 500.0 787.5 500.0Q833.5 501.0 853.5 505.0Q873.5 509.0 880.5 514.0Q890.5 524.0 890.5 534.0Q890.5 535.0 890.0 540.5Q889.5 546.0 875.5 561.0L859.5 577.0L756.5 573.0H652.5Q652.5 575.0 658.5 581.5Q664.5 588.0 673.5 597.0Q682.5 606.0 695.0 620.5Q707.5 635.0 716.5 647.0L740.5 676.0L760.5 645.0Q774.5 622.0 789.0 612.0Q803.5 602.0 818.5 602.0Q821.5 602.0 824.5 602.0Q837.5 602.0 851.0 613.0Q864.5 624.0 866.5 635.0Q866.5 638.0 855.5 653.5Q844.5 669.0 830.5 687.0L794.5 732.0L810.5 753.0Q817.5 762.0 836.5 779.5Q855.5 797.0 875.5 813.0Q905.5 834.0 914.5 845.0Q923.5 856.0 923.5 865.0Q923.5 867.0 923.5 869.0Q923.5 876.0 920.0 885.0Q916.5 894.0 911.5 901.0Q902.5 910.0 897.0 910.0Q891.5 910.0 880.5 901.0Q810.5 858.0 779.0 831.0Q747.5 804.0 697.5 743.0Q639.5 676.0 628.5 651.5Q617.5 627.0 617.5 615.0Q617.5 598.0 630.5 586.0Q636.5 580.0 636.5 578.0Q636.5 577.0 635.5 576.0Q634.5 575.0 625.5 572.0Q617.5 570.0 606.5 570.0H583.5L558.5 572.0L556.5 687.0Q555.5 715.0 555.5 737.0Q555.5 758.0 557.0 780.0Q558.5 802.0 562.5 802.0Q565.5 802.0 578.0 797.5Q590.5 793.0 607.5 786.0Q639.5 771.0 647.5 770.5Q655.5 770.0 656.5 770.0Q670.5 770.0 679.5 780.0Q693.5 796.0 693.5 809.0Q693.5 816.0 687.0 827.0Q680.5 838.0 635.5 854.0Q619.5 860.0 606.0 867.0Q592.5 874.0 587.5 878.0Q574.5 887.0 550.0 894.0Q525.5 901.0 513.5 901.0Q510.5 901.0 508.5 901.0Q490.5 901.0 486.5 870.0Q482.5 839.0 482.5 758.0Q482.5 740.0 482.5 719.0V570.0H463.5Q454.5 570.0 445.5 566.5Q436.5 563.0 430.5 557.0Q419.5 546.0 419.5 534.0Q419.5 524.0 426.5 514.0ZM102.5 344.0Q104.5 321.0 110.5 318.0Q115.5 311.0 137.0 309.0Q158.5 307.0 216.5 305.0H286.5Q315.5 305.0 320.5 303.0Q324.5 303.0 326.5 289.0Q328.5 275.0 328.5 242.0V181.0H229.5Q171.5 181.0 147.0 178.5Q122.5 176.0 115.5 170.0Q101.5 159.0 101.5 141.0Q101.5 123.0 115.5 113.0Q122.5 105.0 142.5 104.0Q162.5 103.0 184.5 103.0Q213.5 103.0 259.5 104.0Q315.5 105.0 354.0 107.0Q392.5 109.0 398.5 111.0Q405.5 113.0 406.0 128.5Q406.5 144.0 406.5 151.0Q406.5 180.0 403.5 239.0Q403.5 250.0 403.5 260.0Q403.5 350.0 389.5 366.0Q375.5 382.0 325.5 382.0Q302.5 382.0 272.5 379.0L173.5 375.0V438.0Q173.5 478.0 175.0 491.5Q176.5 505.0 184.5 507.0Q189.5 509.0 216.5 509.5Q243.5 510.0 281.5 510.0Q319.5 510.0 349.0 512.0Q378.5 514.0 383.5 514.0Q406.5 521.0 406.5 559.0Q406.5 568.0 405.5 579.0Q403.5 593.0 399.0 625.5Q394.5 658.0 391.5 692.0Q380.5 775.0 372.5 813.5Q364.5 852.0 353.5 878.0Q340.5 912.0 329.5 916.5Q318.5 921.0 311.5 921.0Q296.5 921.0 274.5 910.0Q241.5 894.0 214.5 868.5Q187.5 843.0 185.5 827.0Q185.5 813.0 197.5 801.0Q209.5 789.0 223.5 789.0Q238.5 789.0 254.5 798.0Q270.5 807.0 281.5 822.0Q284.5 826.0 286.5 826.0Q286.5 826.0 288.5 825.5Q290.5 825.0 293.5 818.0Q301.5 804.0 310.5 742.0Q319.5 680.0 324.5 624.0L326.5 584.0L302.5 579.0Q292.5 579.0 262.5 577.0Q232.5 575.0 196.5 575.0Q139.5 575.0 125.0 573.5Q110.5 572.0 108.5 561.0Q104.5 552.0 103.0 517.0Q101.5 482.0 101.5 437.0Q100.5 409.0 100.5 389.0Q100.5 358.0 102.5 344.0Z" fill="black"></path></svg>